<?xml version="1.0" standalone="no"?>
<!DOCTYPE svg PUBLIC "-//W3C//DTD SVG 1.1//EN"
"http://www.w3.org/Graphics/SVG/1.1/DTD/svg11.dtd">

<svg width="432" height="456" view_box="0 0 432 456"
xmlns="http://www.w3.org/2000/svg"
xmlns:link="http://www.w3.org/1999/xlink">\n\n<desc>Généré par Mocodo 2.3.7 le Wed, 25 Nov 2020 07:58:11</desc>

<rect id="frame" x="0" y="0" width="432" height="456" fill="#f5f5f5" stroke="none" stroke-width="0"/>

<!-- Association tagged -->
<line x1="394" y1="68" x2="394" y2="211" stroke="#35978f" stroke-width="2"/>
<text x="399.0" y="127" fill="#8c510a" font-family="Verdana" font-size="12">0,N</text>
<line x1="282" y1="211" x2="394" y2="211" stroke="#35978f" stroke-width="2"/>
<text x="338" y="228.0" fill="#8c510a" font-family="Verdana" font-size="12">1,1</text>
<g id="association-tagged">
	<path d="M 409 186 a 14 14 90 0 1 14 14 V 211 h -58 V 200 a 14 14 90 0 1 14 -14" fill="#80cdc1" stroke="#80cdc1" stroke-width="0"/>
	<path d="M 423 211.0 v 11 a 14 14 90 0 1 -14 14 H 379 a 14 14 90 0 1 -14 -14 V 211.0 H 58" fill="#c7eae5" stroke="#c7eae5" stroke-width="0"/>
	<rect x="365" y="186" width="58" height="50" fill="none" rx="14" stroke="#35978f" stroke-width="2"/>
	<line x1="365" y1="211" x2="423" y2="211" stroke="#35978f" stroke-width="1"/>
	<text x="372" y="203.7" fill="#000000" font-family="Verdana" font-size="12">tagged</text>
</g>

<!-- Association organized -->
<line x1="51" y1="211" x2="162" y2="211" stroke="#35978f" stroke-width="2"/>
<text x="90" y="228.0" fill="#8c510a" font-family="Verdana" font-size="12">0,1</text>
<line x1="282" y1="211" x2="162" y2="211" stroke="#35978f" stroke-width="2"/>
<text x="205" y="228.0" fill="#8c510a" font-family="Verdana" font-size="12">1,1</text>
<g id="association-organized">
	<path d="M 185 186 a 14 14 90 0 1 14 14 V 211 h -74 V 200 a 14 14 90 0 1 14 -14" fill="#80cdc1" stroke="#80cdc1" stroke-width="0"/>
	<path d="M 199 211.0 v 11 a 14 14 90 0 1 -14 14 H 139 a 14 14 90 0 1 -14 -14 V 211.0 H 74" fill="#c7eae5" stroke="#c7eae5" stroke-width="0"/>
	<rect x="125" y="186" width="74" height="50" fill="none" rx="14" stroke="#35978f" stroke-width="2"/>
	<line x1="125" y1="211" x2="199" y2="211" stroke="#35978f" stroke-width="1"/>
	<text x="132" y="203.7" fill="#000000" font-family="Verdana" font-size="12">organized</text>
</g>

<!-- Association Feels -->
<line x1="162" y1="388" x2="282" y2="388" stroke="#35978f" stroke-width="2"/>
<text x="212" y="405.0" fill="#8c510a" font-family="Verdana" font-size="12">0,1</text>
<line x1="394" y1="388" x2="282" y2="388" stroke="#35978f" stroke-width="2"/>
<text x="340" y="405.0" fill="#8c510a" font-family="Verdana" font-size="12">0,N</text>
<g id="association-Feels">
	<path d="M 291 363 a 14 14 90 0 1 14 14 V 388 h -46 V 377 a 14 14 90 0 1 14 -14" fill="#80cdc1" stroke="#80cdc1" stroke-width="0"/>
	<path d="M 305 388.0 v 11 a 14 14 90 0 1 -14 14 H 273 a 14 14 90 0 1 -14 -14 V 388.0 H 46" fill="#c7eae5" stroke="#c7eae5" stroke-width="0"/>
	<rect x="259" y="363" width="46" height="50" fill="none" rx="14" stroke="#35978f" stroke-width="2"/>
	<line x1="259" y1="388" x2="305" y2="388" stroke="#35978f" stroke-width="1"/>
	<text x="266" y="380.7" fill="#000000" font-family="Verdana" font-size="12">Feels</text>
</g>

<!-- Association belongs -->
<line x1="51" y1="211" x2="51" y2="388" stroke="#35978f" stroke-width="2"/>
<text x="56.0" y="304" fill="#8c510a" font-family="Verdana" font-size="12">1,N</text>
<line x1="162" y1="388" x2="51" y2="388" stroke="#35978f" stroke-width="2"/>
<text x="91" y="405.0" fill="#8c510a" font-family="Verdana" font-size="12">1,1</text>
<g id="association-belongs">
	<path d="M 68 363 a 14 14 90 0 1 14 14 V 388 h -62 V 377 a 14 14 90 0 1 14 -14" fill="#80cdc1" stroke="#80cdc1" stroke-width="0"/>
	<path d="M 82 388.0 v 11 a 14 14 90 0 1 -14 14 H 34 a 14 14 90 0 1 -14 -14 V 388.0 H 62" fill="#c7eae5" stroke="#c7eae5" stroke-width="0"/>
	<rect x="20" y="363" width="62" height="50" fill="none" rx="14" stroke="#35978f" stroke-width="2"/>
	<line x1="20" y1="388" x2="82" y2="388" stroke="#35978f" stroke-width="1"/>
	<text x="27" y="380.7" fill="#000000" font-family="Verdana" font-size="12">belongs</text>
</g>

<!-- Association link user to -->
<line x1="162" y1="68" x2="51" y2="68" stroke="#35978f" stroke-width="2"/>
<text x="99" y="85.0" fill="#8c510a" font-family="Verdana" font-size="12">1,1</text>
<line x1="51" y1="211" x2="51" y2="68" stroke="#35978f" stroke-width="2"/>
<text x="56.0" y="127" fill="#8c510a" font-family="Verdana" font-size="12">0,N</text>
<g id="association-link user to">
	<path d="M 79 43 a 14 14 90 0 1 14 14 V 68 h -84 V 57 a 14 14 90 0 1 14 -14" fill="#80cdc1" stroke="#80cdc1" stroke-width="0"/>
	<path d="M 93 68.0 v 11 a 14 14 90 0 1 -14 14 H 23 a 14 14 90 0 1 -14 -14 V 68.0 H 84" fill="#c7eae5" stroke="#c7eae5" stroke-width="0"/>
	<rect x="9" y="43" width="84" height="50" fill="none" rx="14" stroke="#35978f" stroke-width="2"/>
	<line x1="9" y1="68" x2="93" y2="68" stroke="#35978f" stroke-width="1"/>
	<text x="16" y="60.7" fill="#000000" font-family="Verdana" font-size="12">link user to</text>
</g>

<!-- Association link event to -->
<line x1="162" y1="68" x2="282" y2="68" stroke="#35978f" stroke-width="2"/>
<text x="204" y="85.0" fill="#8c510a" font-family="Verdana" font-size="12">1,1</text>
<line x1="282" y1="211" x2="282" y2="68" stroke="#35978f" stroke-width="2"/>
<text x="287.0" y="110" fill="#8c510a" font-family="Verdana" font-size="12">0,N</text>
<g id="association-link event to">
	<path d="M 314 43 a 14 14 90 0 1 14 14 V 68 h -92 V 57 a 14 14 90 0 1 14 -14" fill="#80cdc1" stroke="#80cdc1" stroke-width="0"/>
	<path d="M 328 68.0 v 11 a 14 14 90 0 1 -14 14 H 250 a 14 14 90 0 1 -14 -14 V 68.0 H 92" fill="#c7eae5" stroke="#c7eae5" stroke-width="0"/>
	<rect x="236" y="43" width="92" height="50" fill="none" rx="14" stroke="#35978f" stroke-width="2"/>
	<line x1="236" y1="68" x2="328" y2="68" stroke="#35978f" stroke-width="1"/>
	<text x="243" y="60.7" fill="#000000" font-family="Verdana" font-size="12">link event to</text>
</g>

<!-- Entity users -->
<g id="entity-users">
	<g id="frame-users">
		<rect x="17" y="135" width="68" height="25" fill="#dfc27d" stroke="#dfc27d" stroke-width="0"/>
		<rect x="17" y="160.0" width="68" height="127" fill="#f6e8c3" stroke="#f6e8c3" stroke-width="0"/>
		<rect x="17" y="135" width="68" height="152" fill="none" stroke="#bf812d" stroke-width="2"/>
		<line x1="17" y1="160" x2="85" y2="160" stroke="#bf812d" stroke-width="1"/>
	</g>
	<text x="34" y="152.7" fill="#000000" font-family="Verdana" font-size="12">users</text>
	<text x="22" y="177.7" fill="#000000" font-family="Verdana" font-size="12">id</text>
	<line x1="22" y1="180" x2="34" y2="180" stroke="#000000" stroke-width="1"/>
	<text x="22" y="194.7" fill="#000000" font-family="Verdana" font-size="12">firstname</text>
	<text x="22" y="211.8" fill="#000000" font-family="Verdana" font-size="12">lastname</text>
	<text x="22" y="228.8" fill="#000000" font-family="Verdana" font-size="12">pseudo</text>
	<text x="22" y="245.8" fill="#000000" font-family="Verdana" font-size="12">password</text>
	<text x="22" y="262.8" fill="#000000" font-family="Verdana" font-size="12">role</text>
</g>

<!-- Entity tags -->
<g id="entity-tags">
	<g id="frame-tags">
		<rect x="367" y="26" width="54" height="25" fill="#dfc27d" stroke="#dfc27d" stroke-width="0"/>
		<rect x="367" y="51.0" width="54" height="59" fill="#f6e8c3" stroke="#f6e8c3" stroke-width="0"/>
		<rect x="367" y="26" width="54" height="84" fill="none" stroke="#bf812d" stroke-width="2"/>
		<line x1="367" y1="51" x2="421" y2="51" stroke="#bf812d" stroke-width="1"/>
	</g>
	<text x="380" y="43.7" fill="#000000" font-family="Verdana" font-size="12">tags</text>
	<text x="372" y="68.8" fill="#000000" font-family="Verdana" font-size="12">id</text>
	<line x1="372" y1="71" x2="384" y2="71" stroke="#000000" stroke-width="1"/>
	<text x="372" y="85.8" fill="#000000" font-family="Verdana" font-size="12">name</text>
	<text x="372" y="102.8" fill="#000000" font-family="Verdana" font-size="12">picture</text>
</g>

<!-- Entity comments -->
<g id="entity-comments">
	<g id="frame-comments">
		<rect x="125" y="9" width="74" height="25" fill="#dfc27d" stroke="#dfc27d" stroke-width="0"/>
		<rect x="125" y="34.0" width="74" height="93" fill="#f6e8c3" stroke="#f6e8c3" stroke-width="0"/>
		<rect x="125" y="9" width="74" height="118" fill="none" stroke="#bf812d" stroke-width="2"/>
		<line x1="125" y1="34" x2="199" y2="34" stroke="#bf812d" stroke-width="1"/>
	</g>
	<text x="130" y="26.7" fill="#000000" font-family="Verdana" font-size="12">comments</text>
	<text x="130" y="51.7" fill="#000000" font-family="Verdana" font-size="12">id</text>
	<line x1="130" y1="54" x2="142" y2="54" stroke="#000000" stroke-width="1"/>
	<text x="130" y="68.8" fill="#000000" font-family="Verdana" font-size="12">userId</text>
	<text x="130" y="85.8" fill="#000000" font-family="Verdana" font-size="12">title</text>
	<text x="130" y="102.8" fill="#000000" font-family="Verdana" font-size="12">body</text>
	<text x="130" y="119.8" fill="#000000" font-family="Verdana" font-size="12">eventId</text>
</g>

<!-- Entity dogs -->
<g id="entity-dogs">
	<g id="frame-dogs">
		<rect x="117" y="329" width="90" height="25" fill="#dfc27d" stroke="#dfc27d" stroke-width="0"/>
		<rect x="117" y="354.0" width="90" height="93" fill="#f6e8c3" stroke="#f6e8c3" stroke-width="0"/>
		<rect x="117" y="329" width="90" height="118" fill="none" stroke="#bf812d" stroke-width="2"/>
		<line x1="117" y1="354" x2="207" y2="354" stroke="#bf812d" stroke-width="1"/>
	</g>
	<text x="147" y="346.7" fill="#000000" font-family="Verdana" font-size="12">dogs</text>
	<text x="122" y="371.7" fill="#000000" font-family="Verdana" font-size="12">id</text>
	<line x1="122" y1="374" x2="134" y2="374" stroke="#000000" stroke-width="1"/>
	<text x="122" y="388.8" fill="#000000" font-family="Verdana" font-size="12">avatar</text>
	<text x="122" y="405.8" fill="#000000" font-family="Verdana" font-size="12">moodId</text>
	<text x="122" y="422.8" fill="#000000" font-family="Verdana" font-size="12">userId</text>
	<text x="122" y="439.8" fill="#000000" font-family="Verdana" font-size="12">dogCondition</text>
</g>

<!-- Entity moods -->
<g id="entity-moods">
	<g id="frame-moods">
		<rect x="367" y="346" width="54" height="25" fill="#dfc27d" stroke="#dfc27d" stroke-width="0"/>
		<rect x="367" y="371.0" width="54" height="59" fill="#f6e8c3" stroke="#f6e8c3" stroke-width="0"/>
		<rect x="367" y="346" width="54" height="84" fill="none" stroke="#bf812d" stroke-width="2"/>
		<line x1="367" y1="371" x2="421" y2="371" stroke="#bf812d" stroke-width="1"/>
	</g>
	<text x="373" y="363.7" fill="#000000" font-family="Verdana" font-size="12">moods</text>
	<text x="372" y="388.8" fill="#000000" font-family="Verdana" font-size="12">id</text>
	<line x1="372" y1="391" x2="384" y2="391" stroke="#000000" stroke-width="1"/>
	<text x="372" y="405.8" fill="#000000" font-family="Verdana" font-size="12">name</text>
	<text x="372" y="422.8" fill="#000000" font-family="Verdana" font-size="12">picture</text>
</g>

<!-- Entity events -->
<g id="entity-events">
	<g id="frame-events">
		<rect x="231" y="118" width="102" height="25" fill="#dfc27d" stroke="#dfc27d" stroke-width="0"/>
		<rect x="231" y="143.0" width="102" height="161" fill="#f6e8c3" stroke="#f6e8c3" stroke-width="0"/>
		<rect x="231" y="118" width="102" height="186" fill="none" stroke="#bf812d" stroke-width="2"/>
		<line x1="231" y1="143" x2="333" y2="143" stroke="#bf812d" stroke-width="1"/>
	</g>
	<text x="261" y="135.7" fill="#000000" font-family="Verdana" font-size="12">events</text>
	<text x="236" y="160.7" fill="#000000" font-family="Verdana" font-size="12">id</text>
	<line x1="236" y1="163" x2="248" y2="163" stroke="#000000" stroke-width="1"/>
	<text x="236" y="177.7" fill="#000000" font-family="Verdana" font-size="12">name</text>
	<text x="236" y="194.7" fill="#000000" font-family="Verdana" font-size="12">locate</text>
	<text x="236" y="211.8" fill="#000000" font-family="Verdana" font-size="12">tagsId</text>
	<text x="236" y="228.8" fill="#000000" font-family="Verdana" font-size="12">userId</text>
	<text x="236" y="245.8" fill="#000000" font-family="Verdana" font-size="12">maxParticipant</text>
	<text x="236" y="262.8" fill="#000000" font-family="Verdana" font-size="12">datetime</text>
	<text x="236" y="279.8" fill="#000000" font-family="Verdana" font-size="12">duration</text>
	<text x="236" y="296.8" fill="#000000" font-family="Verdana" font-size="12">description</text>
</g>
</svg>