<?xml version="1.0" standalone="no"?>
<!DOCTYPE svg PUBLIC "-//W3C//DTD SVG 1.1//EN"
"http://www.w3.org/Graphics/SVG/1.1/DTD/svg11.dtd">

<svg width="632" height="642" view_box="0 0 632 642"
xmlns="http://www.w3.org/2000/svg"
xmlns:link="http://www.w3.org/1999/xlink">\n\n<desc>Généré par Mocodo 2.3.7 le Thu, 26 Nov 2020 07:29:35</desc>

<rect id="frame" x="0" y="0" width="632" height="642" fill="#ffffff" stroke="none" stroke-width="0"/>

<!-- Association tagged -->
<line x1="572" y1="557" x2="572" y2="431" stroke="#d6604d" stroke-width="2"/>
<text x="577.0" y="490" fill="#4d4d4d" font-family="Verdana" font-size="12">0,N</text>
<line x1="572" y1="254" x2="572" y2="431" stroke="#d6604d" stroke-width="2"/>
<text x="577.0" y="381" fill="#4d4d4d" font-family="Verdana" font-size="12">1,N</text>
<g id="association-tagged">
	<path d="M 587 406 a 14 14 90 0 1 14 14 V 431 h -58 V 420 a 14 14 90 0 1 14 -14" fill="#f4a582" stroke="#f4a582" stroke-width="0"/>
	<path d="M 601 431.0 v 11 a 14 14 90 0 1 -14 14 H 557 a 14 14 90 0 1 -14 -14 V 431.0 H 58" fill="#fddbc7" stroke="#fddbc7" stroke-width="0"/>
	<rect x="543" y="406" width="58" height="50" fill="none" rx="14" stroke="#d6604d" stroke-width="2"/>
	<line x1="543" y1="431" x2="601" y2="431" stroke="#d6604d" stroke-width="1"/>
	<text x="550" y="423.7" fill="#000000" font-family="Verdana" font-size="12">tagged</text>
</g>

<!-- Association belongs to -->
<line x1="446" y1="431" x2="309" y2="557" stroke="#d6604d" stroke-width="2"/>
<text x="398.680214924" y="490" fill="#4d4d4d" font-family="Verdana" font-size="12">1,N</text>
<line x1="179" y1="557" x2="309" y2="557" stroke="#d6604d" stroke-width="2"/>
<text x="243" y="574.0" fill="#4d4d4d" font-family="Verdana" font-size="12">1,1</text>
<g id="association-belongs to">
	<path d="M 334 532 a 14 14 90 0 1 14 14 V 557 h -78 V 546 a 14 14 90 0 1 14 -14" fill="#f4a582" stroke="#f4a582" stroke-width="0"/>
	<path d="M 348 557.0 v 11 a 14 14 90 0 1 -14 14 H 284 a 14 14 90 0 1 -14 -14 V 557.0 H 78" fill="#fddbc7" stroke="#fddbc7" stroke-width="0"/>
	<rect x="270" y="532" width="78" height="50" fill="none" rx="14" stroke="#d6604d" stroke-width="2"/>
	<line x1="270" y1="557" x2="348" y2="557" stroke="#d6604d" stroke-width="1"/>
	<text x="277" y="549.7" fill="#000000" font-family="Verdana" font-size="12">belongs to</text>
</g>

<!-- Association is -->
<line x1="54" y1="254" x2="54" y2="431" stroke="#d6604d" stroke-width="2"/>
<text x="59.0" y="381" fill="#4d4d4d" font-family="Verdana" font-size="12">0,1</text>
<line x1="54" y1="557" x2="54" y2="431" stroke="#d6604d" stroke-width="2"/>
<text x="59.0" y="507" fill="#4d4d4d" font-family="Verdana" font-size="12">0,N</text>
<g id="association-is">
	<path d="M 53 406 a 14 14 90 0 1 14 14 V 431 h -26 V 420 a 14 14 90 0 1 14 -14" fill="#f4a582" stroke="#f4a582" stroke-width="0"/>
	<path d="M 67 431.0 v 11 a 14 14 90 0 1 -14 14 H 55 a 14 14 90 0 1 -14 -14 V 431.0 H 26" fill="#fddbc7" stroke="#fddbc7" stroke-width="0"/>
	<rect x="41" y="406" width="26" height="50" fill="none" rx="14" stroke="#d6604d" stroke-width="2"/>
	<line x1="41" y1="431" x2="67" y2="431" stroke="#d6604d" stroke-width="1"/>
	<text x="48" y="423.7" fill="#000000" font-family="Verdana" font-size="12">is</text>
</g>

<!-- Association organized -->
<line x1="309" y1="254" x2="446" y2="254" stroke="#d6604d" stroke-width="2"/>
<text x="351" y="271.0" fill="#4d4d4d" font-family="Verdana" font-size="12">0,1</text>
<line x1="572" y1="254" x2="446" y2="254" stroke="#d6604d" stroke-width="2"/>
<text x="495" y="271.0" fill="#4d4d4d" font-family="Verdana" font-size="12">1,1</text>
<g id="association-organized">
	<path d="M 469 229 a 14 14 90 0 1 14 14 V 254 h -74 V 243 a 14 14 90 0 1 14 -14" fill="#f4a582" stroke="#f4a582" stroke-width="0"/>
	<path d="M 483 254.0 v 11 a 14 14 90 0 1 -14 14 H 423 a 14 14 90 0 1 -14 -14 V 254.0 H 74" fill="#fddbc7" stroke="#fddbc7" stroke-width="0"/>
	<rect x="409" y="229" width="74" height="50" fill="none" rx="14" stroke="#d6604d" stroke-width="2"/>
	<line x1="409" y1="254" x2="483" y2="254" stroke="#d6604d" stroke-width="1"/>
	<text x="416" y="246.7" fill="#000000" font-family="Verdana" font-size="12">organized</text>
</g>

<!-- Association Feels -->
<line x1="54" y1="254" x2="54" y2="94" stroke="#d6604d" stroke-width="2"/>
<text x="59.0" y="136" fill="#4d4d4d" font-family="Verdana" font-size="12">0,1</text>
<line x1="179" y1="94" x2="54" y2="94" stroke="#d6604d" stroke-width="2"/>
<text x="115" y="111.0" fill="#4d4d4d" font-family="Verdana" font-size="12">0,N</text>
<g id="association-Feels">
	<path d="M 63 69 a 14 14 90 0 1 14 14 V 94 h -46 V 83 a 14 14 90 0 1 14 -14" fill="#f4a582" stroke="#f4a582" stroke-width="0"/>
	<path d="M 77 94.0 v 11 a 14 14 90 0 1 -14 14 H 45 a 14 14 90 0 1 -14 -14 V 94.0 H 46" fill="#fddbc7" stroke="#fddbc7" stroke-width="0"/>
	<rect x="31" y="69" width="46" height="50" fill="none" rx="14" stroke="#d6604d" stroke-width="2"/>
	<line x1="31" y1="94" x2="77" y2="94" stroke="#d6604d" stroke-width="1"/>
	<text x="38" y="86.7" fill="#000000" font-family="Verdana" font-size="12">Feels</text>
</g>

<!-- Association belongs -->
<line x1="309" y1="254" x2="179" y2="254" stroke="#d6604d" stroke-width="2"/>
<text x="245" y="246.0" fill="#4d4d4d" font-family="Verdana" font-size="12">1,N</text>
<line x1="54" y1="254" x2="179" y2="254" stroke="#d6604d" stroke-width="2"/>
<text x="104" y="271.0" fill="#4d4d4d" font-family="Verdana" font-size="12">1,1</text>
<g id="association-belongs">
	<path d="M 196 229 a 14 14 90 0 1 14 14 V 254 h -62 V 243 a 14 14 90 0 1 14 -14" fill="#f4a582" stroke="#f4a582" stroke-width="0"/>
	<path d="M 210 254.0 v 11 a 14 14 90 0 1 -14 14 H 162 a 14 14 90 0 1 -14 -14 V 254.0 H 62" fill="#fddbc7" stroke="#fddbc7" stroke-width="0"/>
	<rect x="148" y="229" width="62" height="50" fill="none" rx="14" stroke="#d6604d" stroke-width="2"/>
	<line x1="148" y1="254" x2="210" y2="254" stroke="#d6604d" stroke-width="1"/>
	<text x="155" y="246.7" fill="#000000" font-family="Verdana" font-size="12">belongs</text>
</g>

<!-- Association link user to -->
<line x1="446" y1="94" x2="309" y2="94" stroke="#d6604d" stroke-width="2"/>
<text x="383" y="111.0" fill="#4d4d4d" font-family="Verdana" font-size="12">1,1</text>
<line x1="309" y1="254" x2="309" y2="94" stroke="#d6604d" stroke-width="2"/>
<text x="314.0" y="161" fill="#4d4d4d" font-family="Verdana" font-size="12">0,N</text>
<g id="association-link user to">
	<path d="M 337 69 a 14 14 90 0 1 14 14 V 94 h -84 V 83 a 14 14 90 0 1 14 -14" fill="#f4a582" stroke="#f4a582" stroke-width="0"/>
	<path d="M 351 94.0 v 11 a 14 14 90 0 1 -14 14 H 281 a 14 14 90 0 1 -14 -14 V 94.0 H 84" fill="#fddbc7" stroke="#fddbc7" stroke-width="0"/>
	<rect x="267" y="69" width="84" height="50" fill="none" rx="14" stroke="#d6604d" stroke-width="2"/>
	<line x1="267" y1="94" x2="351" y2="94" stroke="#d6604d" stroke-width="1"/>
	<text x="274" y="86.7" fill="#000000" font-family="Verdana" font-size="12">link user to</text>
</g>

<!-- Association link event to -->
<line x1="446" y1="94" x2="572" y2="94" stroke="#d6604d" stroke-width="2"/>
<text x="488" y="111.0" fill="#4d4d4d" font-family="Verdana" font-size="12">1,1</text>
<line x1="572" y1="254" x2="572" y2="94" stroke="#d6604d" stroke-width="2"/>
<text x="577.0" y="136" fill="#4d4d4d" font-family="Verdana" font-size="12">0,N</text>
<g id="association-link event to">
	<path d="M 604 69 a 14 14 90 0 1 14 14 V 94 h -92 V 83 a 14 14 90 0 1 14 -14" fill="#f4a582" stroke="#f4a582" stroke-width="0"/>
	<path d="M 618 94.0 v 11 a 14 14 90 0 1 -14 14 H 540 a 14 14 90 0 1 -14 -14 V 94.0 H 92" fill="#fddbc7" stroke="#fddbc7" stroke-width="0"/>
	<rect x="526" y="69" width="92" height="50" fill="none" rx="14" stroke="#d6604d" stroke-width="2"/>
	<line x1="526" y1="94" x2="618" y2="94" stroke="#d6604d" stroke-width="1"/>
	<text x="533" y="86.7" fill="#000000" font-family="Verdana" font-size="12">link event to</text>
</g>

<!-- Association participate -->
<line x1="446" y1="431" x2="309" y2="431" stroke="#d6604d" stroke-width="2"/>
<text x="354" y="423.0" fill="#4d4d4d" font-family="Verdana" font-size="12">1,N</text>
<line x1="309" y1="254" x2="309" y2="431" stroke="#d6604d" stroke-width="2"/>
<text x="314.0" y="356" fill="#4d4d4d" font-family="Verdana" font-size="12">0,N</text>
<g id="association-participate">
	<path d="M 335 406 a 14 14 90 0 1 14 14 V 431 h -80 V 420 a 14 14 90 0 1 14 -14" fill="#f4a582" stroke="#f4a582" stroke-width="0"/>
	<path d="M 349 431.0 v 11 a 14 14 90 0 1 -14 14 H 283 a 14 14 90 0 1 -14 -14 V 431.0 H 80" fill="#fddbc7" stroke="#fddbc7" stroke-width="0"/>
	<rect x="269" y="406" width="80" height="50" fill="none" rx="14" stroke="#d6604d" stroke-width="2"/>
	<line x1="269" y1="431" x2="349" y2="431" stroke="#d6604d" stroke-width="1"/>
	<text x="276" y="423.7" fill="#000000" font-family="Verdana" font-size="12">participate</text>
</g>

<!-- Association post -->
<line x1="179" y1="557" x2="179" y2="431" stroke="#d6604d" stroke-width="2"/>
<text x="184.0" y="473" fill="#4d4d4d" font-family="Verdana" font-size="12">1,1</text>
<line x1="309" y1="254" x2="179" y2="431" stroke="#d6604d" stroke-width="2"/>
<text x="245" y="301.934624699" fill="#4d4d4d" font-family="Verdana" font-size="12">0,N</text>
<g id="association-post">
	<path d="M 186 406 a 14 14 90 0 1 14 14 V 431 h -42 V 420 a 14 14 90 0 1 14 -14" fill="#f4a582" stroke="#f4a582" stroke-width="0"/>
	<path d="M 200 431.0 v 11 a 14 14 90 0 1 -14 14 H 172 a 14 14 90 0 1 -14 -14 V 431.0 H 42" fill="#fddbc7" stroke="#fddbc7" stroke-width="0"/>
	<rect x="158" y="406" width="42" height="50" fill="none" rx="14" stroke="#d6604d" stroke-width="2"/>
	<line x1="158" y1="431" x2="200" y2="431" stroke="#d6604d" stroke-width="1"/>
	<text x="165" y="423.7" fill="#000000" font-family="Verdana" font-size="12">post</text>
</g>

<!-- Entity users -->
<g id="entity-users">
	<g id="frame-users">
		<rect x="272" y="169" width="74" height="25" fill="#bababa" stroke="#bababa" stroke-width="0"/>
		<rect x="272" y="194.0" width="74" height="145" fill="#e0e0e0" stroke="#e0e0e0" stroke-width="0"/>
		<rect x="272" y="169" width="74" height="170" fill="none" stroke="#878787" stroke-width="2"/>
		<line x1="272" y1="194" x2="346" y2="194" stroke="#878787" stroke-width="1"/>
	</g>
	<text x="292" y="186.7" fill="#000000" font-family="Verdana" font-size="12">users</text>
	<text x="277" y="211.7" fill="#000000" font-family="Verdana" font-size="12">id</text>
	<line x1="277" y1="214" x2="289" y2="214" stroke="#000000" stroke-width="1"/>
	<text x="277" y="228.7" fill="#000000" font-family="Verdana" font-size="12">firstname</text>
	<text x="277" y="245.7" fill="#000000" font-family="Verdana" font-size="12">lastname</text>
	<text x="277" y="262.8" fill="#000000" font-family="Verdana" font-size="12">pseudo</text>
	<text x="277" y="279.8" fill="#000000" font-family="Verdana" font-size="12">password</text>
	<text x="277" y="296.8" fill="#000000" font-family="Verdana" font-size="12">role</text>
	<text x="277" y="313.8" fill="#000000" font-family="Verdana" font-size="12">createdAt</text>
	<text x="277" y="330.8" fill="#000000" font-family="Verdana" font-size="12">updatedAt</text>
</g>

<!-- Entity tags -->
<g id="entity-tags">
	<g id="frame-tags">
		<rect x="535" y="498" width="74" height="25" fill="#bababa" stroke="#bababa" stroke-width="0"/>
		<rect x="535" y="523.0" width="74" height="93" fill="#e0e0e0" stroke="#e0e0e0" stroke-width="0"/>
		<rect x="535" y="498" width="74" height="118" fill="none" stroke="#878787" stroke-width="2"/>
		<line x1="535" y1="523" x2="609" y2="523" stroke="#878787" stroke-width="1"/>
	</g>
	<text x="558" y="515.7" fill="#000000" font-family="Verdana" font-size="12">tags</text>
	<text x="540" y="540.7" fill="#000000" font-family="Verdana" font-size="12">id</text>
	<line x1="540" y1="543" x2="552" y2="543" stroke="#000000" stroke-width="1"/>
	<text x="540" y="557.8" fill="#000000" font-family="Verdana" font-size="12">name</text>
	<text x="540" y="574.8" fill="#000000" font-family="Verdana" font-size="12">picture</text>
	<text x="540" y="591.8" fill="#000000" font-family="Verdana" font-size="12">createdAt</text>
	<text x="540" y="608.8" fill="#000000" font-family="Verdana" font-size="12">updatedAt</text>
</g>

<!-- Entity discussion -->
<g id="entity-discussion">
	<g id="frame-discussion">
		<rect x="381" y="389" width="130" height="25" fill="#bababa" stroke="#bababa" stroke-width="0"/>
		<rect x="381" y="414.0" width="130" height="59" fill="#e0e0e0" stroke="#e0e0e0" stroke-width="0"/>
		<rect x="381" y="389" width="130" height="84" fill="none" stroke="#878787" stroke-width="2"/>
		<line x1="381" y1="414" x2="511" y2="414" stroke="#878787" stroke-width="1"/>
	</g>
	<text x="415" y="406.7" fill="#000000" font-family="Verdana" font-size="12">discussion</text>
	<text x="386" y="431.8" fill="#000000" font-family="Verdana" font-size="12">id</text>
	<line x1="386" y1="434" x2="398" y2="434" stroke="#000000" stroke-width="1"/>
	<text x="386" y="448.8" fill="#000000" font-family="Verdana" font-size="12">userId</text>
	<text x="386" y="465.8" fill="#000000" font-family="Verdana" font-size="12">privateCommentsId</text>
</g>

<!-- Entity character -->
<g id="entity-character">
	<g id="frame-character">
		<rect x="20" y="515" width="68" height="25" fill="#bababa" stroke="#bababa" stroke-width="0"/>
		<rect x="20" y="540.0" width="68" height="59" fill="#e0e0e0" stroke="#e0e0e0" stroke-width="0"/>
		<rect x="20" y="515" width="68" height="84" fill="none" stroke="#878787" stroke-width="2"/>
		<line x1="20" y1="540" x2="88" y2="540" stroke="#878787" stroke-width="1"/>
	</g>
	<text x="25" y="532.7" fill="#000000" font-family="Verdana" font-size="12">character</text>
	<text x="25" y="557.8" fill="#000000" font-family="Verdana" font-size="12">id</text>
	<line x1="25" y1="560" x2="37" y2="560" stroke="#000000" stroke-width="1"/>
	<text x="25" y="574.8" fill="#000000" font-family="Verdana" font-size="12">name</text>
	<text x="25" y="591.8" fill="#000000" font-family="Verdana" font-size="12">picture</text>
</g>

<!-- Entity comments -->
<g id="entity-comments">
	<g id="frame-comments">
		<rect x="409" y="9" width="74" height="25" fill="#bababa" stroke="#bababa" stroke-width="0"/>
		<rect x="409" y="34.0" width="74" height="145" fill="#e0e0e0" stroke="#e0e0e0" stroke-width="0"/>
		<rect x="409" y="9" width="74" height="170" fill="none" stroke="#878787" stroke-width="2"/>
		<line x1="409" y1="34" x2="483" y2="34" stroke="#878787" stroke-width="1"/>
	</g>
	<text x="414" y="26.7" fill="#000000" font-family="Verdana" font-size="12">comments</text>
	<text x="414" y="51.7" fill="#000000" font-family="Verdana" font-size="12">id</text>
	<line x1="414" y1="54" x2="426" y2="54" stroke="#000000" stroke-width="1"/>
	<text x="414" y="68.7" fill="#000000" font-family="Verdana" font-size="12">userId</text>
	<text x="414" y="85.7" fill="#000000" font-family="Verdana" font-size="12">title</text>
	<text x="414" y="102.8" fill="#000000" font-family="Verdana" font-size="12">body</text>
	<text x="414" y="119.8" fill="#000000" font-family="Verdana" font-size="12">eventId</text>
	<text x="414" y="153.8" fill="#000000" font-family="Verdana" font-size="12">createdAt</text>
	<text x="414" y="170.8" fill="#000000" font-family="Verdana" font-size="12">updatedAt</text>
</g>

<!-- Entity dogs -->
<g id="entity-dogs">
	<g id="frame-dogs">
		<rect x="9" y="144" width="90" height="25" fill="#bababa" stroke="#bababa" stroke-width="0"/>
		<rect x="9" y="169.0" width="90" height="195" fill="#e0e0e0" stroke="#e0e0e0" stroke-width="0"/>
		<rect x="9" y="144" width="90" height="220" fill="none" stroke="#878787" stroke-width="2"/>
		<line x1="9" y1="169" x2="99" y2="169" stroke="#878787" stroke-width="1"/>
	</g>
	<text x="39" y="161.7" fill="#000000" font-family="Verdana" font-size="12">dogs</text>
	<text x="14" y="186.7" fill="#000000" font-family="Verdana" font-size="12">id</text>
	<line x1="14" y1="189" x2="26" y2="189" stroke="#000000" stroke-width="1"/>
	<text x="14" y="203.7" fill="#000000" font-family="Verdana" font-size="12">avatar</text>
	<text x="14" y="220.7" fill="#000000" font-family="Verdana" font-size="12">moodId</text>
	<text x="14" y="237.7" fill="#000000" font-family="Verdana" font-size="12">userId</text>
	<text x="14" y="254.8" fill="#000000" font-family="Verdana" font-size="12">dogCondition</text>
	<text x="14" y="271.8" fill="#000000" font-family="Verdana" font-size="12">sex</text>
	<text x="14" y="288.8" fill="#000000" font-family="Verdana" font-size="12">characterId</text>
	<text x="14" y="305.8" fill="#000000" font-family="Verdana" font-size="12">age</text>
	<text x="14" y="322.8" fill="#000000" font-family="Verdana" font-size="12">castrate</text>
	<text x="14" y="339.8" fill="#000000" font-family="Verdana" font-size="12">createdAt</text>
	<text x="14" y="356.8" fill="#000000" font-family="Verdana" font-size="12">updatedAt</text>
</g>

<!-- Entity privateComments -->
<g id="entity-privateComments">
	<g id="frame-privateComments">
		<rect x="120" y="481" width="118" height="25" fill="#bababa" stroke="#bababa" stroke-width="0"/>
		<rect x="120" y="506.0" width="118" height="127" fill="#e0e0e0" stroke="#e0e0e0" stroke-width="0"/>
		<rect x="120" y="481" width="118" height="152" fill="none" stroke="#878787" stroke-width="2"/>
		<line x1="120" y1="506" x2="238" y2="506" stroke="#878787" stroke-width="1"/>
	</g>
	<text x="125" y="498.7" fill="#000000" font-family="Verdana" font-size="12">privateComments</text>
	<text x="125" y="523.7" fill="#000000" font-family="Verdana" font-size="12">id</text>
	<line x1="125" y1="526" x2="137" y2="526" stroke="#000000" stroke-width="1"/>
	<text x="125" y="540.7" fill="#000000" font-family="Verdana" font-size="12">title</text>
	<text x="125" y="557.8" fill="#000000" font-family="Verdana" font-size="12">body</text>
	<text x="125" y="574.8" fill="#000000" font-family="Verdana" font-size="12">userId</text>
	<text x="125" y="591.8" fill="#000000" font-family="Verdana" font-size="12">discussion ID</text>
	<text x="125" y="608.8" fill="#000000" font-family="Verdana" font-size="12">createdAt</text>
	<text x="125" y="625.8" fill="#000000" font-family="Verdana" font-size="12">updatedAt</text>
</g>

<!-- Entity moods -->
<g id="entity-moods">
	<g id="frame-moods">
		<rect x="142" y="35" width="74" height="25" fill="#bababa" stroke="#bababa" stroke-width="0"/>
		<rect x="142" y="60.0" width="74" height="93" fill="#e0e0e0" stroke="#e0e0e0" stroke-width="0"/>
		<rect x="142" y="35" width="74" height="118" fill="none" stroke="#878787" stroke-width="2"/>
		<line x1="142" y1="60" x2="216" y2="60" stroke="#878787" stroke-width="1"/>
	</g>
	<text x="158" y="52.7" fill="#000000" font-family="Verdana" font-size="12">moods</text>
	<text x="147" y="77.7" fill="#000000" font-family="Verdana" font-size="12">id</text>
	<line x1="147" y1="80" x2="159" y2="80" stroke="#000000" stroke-width="1"/>
	<text x="147" y="94.8" fill="#000000" font-family="Verdana" font-size="12">name</text>
	<text x="147" y="111.8" fill="#000000" font-family="Verdana" font-size="12">picture</text>
	<text x="147" y="128.8" fill="#000000" font-family="Verdana" font-size="12">createdAt</text>
	<text x="147" y="145.8" fill="#000000" font-family="Verdana" font-size="12">updatedAt</text>
</g>

<!-- Entity events -->
<g id="entity-events">
	<g id="frame-events">
		<rect x="521" y="144" width="102" height="25" fill="#bababa" stroke="#bababa" stroke-width="0"/>
		<rect x="521" y="169.0" width="102" height="195" fill="#e0e0e0" stroke="#e0e0e0" stroke-width="0"/>
		<rect x="521" y="144" width="102" height="220" fill="none" stroke="#878787" stroke-width="2"/>
		<line x1="521" y1="169" x2="623" y2="169" stroke="#878787" stroke-width="1"/>
	</g>
	<text x="551" y="161.7" fill="#000000" font-family="Verdana" font-size="12">events</text>
	<text x="526" y="186.7" fill="#000000" font-family="Verdana" font-size="12">id</text>
	<line x1="526" y1="189" x2="538" y2="189" stroke="#000000" stroke-width="1"/>
	<text x="526" y="203.7" fill="#000000" font-family="Verdana" font-size="12">name</text>
	<text x="526" y="220.7" fill="#000000" font-family="Verdana" font-size="12">locate</text>
	<text x="526" y="237.7" fill="#000000" font-family="Verdana" font-size="12">tagsId</text>
	<text x="526" y="254.8" fill="#000000" font-family="Verdana" font-size="12">userId</text>
	<text x="526" y="271.8" fill="#000000" font-family="Verdana" font-size="12">maxParticipant</text>
	<text x="526" y="288.8" fill="#000000" font-family="Verdana" font-size="12">datetime</text>
	<text x="526" y="305.8" fill="#000000" font-family="Verdana" font-size="12">duration</text>
	<text x="526" y="322.8" fill="#000000" font-family="Verdana" font-size="12">description</text>
	<text x="526" y="339.8" fill="#000000" font-family="Verdana" font-size="12">createdAt</text>
	<text x="526" y="356.8" fill="#000000" font-family="Verdana" font-size="12">updatedAt</text>
</g>
</svg>